<?xml version="1.0" encoding="utf-8"?>
<svg xmlns="http://www.w3.org/2000/svg" style="margin: auto; background: rgb(241, 242, 243); display: block; shape-rendering: auto;" width="280" height="250" preserveAspectRatio="xMidYMid">
<style type="text/css">
  text {
    text-anchor: middle; font-size: 80px; opacity: 0;
  }
</style>
<g style="transform-origin:140px 125px;transform:scale(1)">
<g transform="translate(140,125)">
  <g transform="translate(0,0)"><g class="path" style="transform: scale(0.91); transform-origin: -89.16px -33.8625px; animation: 1s linear -0.55s infinite normal forwards running breath-9dbdfc13-6241-4c0c-976e-8e00a2ed67dd;"><path d="M19.38-56.02L19.38-56.02L19.38-56.02Q19.38-54.53 18.81-53.20L18.81-53.20L18.81-53.20Q18.24-51.88 17.27-50.90L17.27-50.90L17.27-50.90Q16.29-49.92 14.96-49.36L14.96-49.36L14.96-49.36Q13.63-48.79 12.15-48.79L12.15-48.79L12.15-48.79Q10.66-48.79 9.36-49.36L9.36-49.36L9.36-49.36Q8.05-49.92 7.07-50.90L7.07-50.90L7.07-50.90Q6.09-51.88 5.53-53.20L5.53-53.20L5.53-53.20Q4.96-54.53 4.96-56.02L4.96-56.02L4.96-56.02Q4.96-57.50 5.53-58.81L5.53-58.81L5.53-58.81Q6.09-60.12 7.07-61.09L7.07-61.09L7.07-61.09Q8.05-62.07 9.36-62.64L9.36-62.64L9.36-62.64Q10.66-63.20 12.15-63.20L12.15-63.20L12.15-63.20Q13.63-63.20 14.96-62.64L14.96-62.64L14.96-62.64Q16.29-62.07 17.27-61.09L17.27-61.09L17.27-61.09Q18.24-60.12 18.81-58.81L18.81-58.81L18.81-58.81Q19.38-57.50 19.38-56.02" fill="#28292f" stroke="none" stroke-width="none" transform="translate(-101.32998657226562,22.132462259928378)" style="fill: rgb(40, 41, 47);"></path></g><g class="path" style="transform: scale(0.91); transform-origin: -89.16px -0.407539px; animation: 1s linear -0.44s infinite normal forwards running breath-9dbdfc13-6241-4c0c-976e-8e00a2ed67dd;"><path d="M18.79-45.08L18.79 0L5.55 0L5.55-45.08L18.79-45.08" fill="#28292f" stroke="none" stroke-width="none" transform="translate(-101.32998657226562,22.132462259928378)" style="fill: rgb(228, 47, 47);"></path></g><g class="path" style="transform: scale(0.91); transform-origin: -50.005px -8.20254px; animation: 1s linear -0.33s infinite normal forwards running breath-9dbdfc13-6241-4c0c-976e-8e00a2ed67dd;"><path d="M75.31-61.72L75.31 0L70.23 0L64.38-9.80L64.38-9.80Q63.52-7.34 62.01-5.35L62.01-5.35L62.01-5.35Q60.51-3.36 58.54-1.93L58.54-1.93L58.54-1.93Q56.56-0.51 54.20 0.27L54.20 0.27L54.20 0.27Q51.84 1.05 49.22 1.05L49.22 1.05L49.22 1.05Q44.06 1.05 40-0.78L40-0.78L40-0.78Q35.94-2.62 33.13-5.80L33.13-5.80L33.13-5.80Q30.31-8.98 28.83-13.28L28.83-13.28L28.83-13.28Q27.34-17.58 27.34-22.50L27.34-22.50L27.34-22.50Q27.34-27.42 28.83-31.72L28.83-31.72L28.83-31.72Q30.31-36.02 33.13-39.18L33.13-39.18L33.13-39.18Q35.94-42.34 40-44.18L40-44.18L40-44.18Q44.06-46.02 49.22-46.02L49.22-46.02L49.22-46.02Q53.16-46.02 56.46-44.49L56.46-44.49L56.46-44.49Q59.77-42.97 62.11-39.73L62.11-39.73L62.11-61.72L75.31-61.72zM62.03-22.50L62.03-22.50L62.03-22.50Q62.03-24.06 61.80-25.94L61.80-25.94L61.80-25.94Q61.56-27.81 61.05-29.73L61.05-29.73L61.05-29.73Q60.55-31.64 59.73-33.44L59.73-33.44L59.73-33.44Q58.91-35.23 57.71-36.64L57.71-36.64L57.71-36.64Q56.52-38.05 54.94-38.89L54.94-38.89L54.94-38.89Q53.36-39.73 51.33-39.73L51.33-39.73L51.33-39.73Q49.10-39.73 47.46-38.93L47.46-38.93L47.46-38.93Q45.82-38.13 44.65-36.78L44.65-36.78L44.65-36.78Q43.48-35.43 42.71-33.67L42.71-33.67L42.71-33.67Q41.95-31.91 41.52-30L41.52-30L41.52-30Q41.09-28.09 40.92-26.15L40.92-26.15L40.92-26.15Q40.74-24.22 40.74-22.50L40.74-22.50L40.74-22.50Q40.74-20.78 40.92-18.85L40.92-18.85L40.92-18.85Q41.09-16.91 41.52-15L41.52-15L41.52-15Q41.95-13.09 42.71-11.31L42.71-11.31L42.71-11.31Q43.48-9.53 44.65-8.18L44.65-8.18L44.65-8.18Q45.82-6.84 47.46-6.04L47.46-6.04L47.46-6.04Q49.10-5.23 51.33-5.23L51.33-5.23L51.33-5.23Q53.55-5.23 55.23-6.02L55.23-6.02L55.23-6.02Q56.91-6.80 58.11-8.14L58.11-8.14L58.11-8.14Q59.30-9.49 60.06-11.23L60.06-11.23L60.06-11.23Q60.82-12.97 61.25-14.90L61.25-14.90L61.25-14.90Q61.68-16.84 61.86-18.79L61.86-18.79L61.86-18.79Q62.03-20.74 62.03-22.50" fill="#28292f" stroke="none" stroke-width="none" transform="translate(-101.32998657226562,22.132462259928378)" style="fill: rgb(40, 41, 47);"></path></g><g class="path" style="transform: scale(0.91); transform-origin: 5.39001px -0.522537px; animation: 1s linear -0.22s infinite normal forwards running breath-9dbdfc13-6241-4c0c-976e-8e00a2ed67dd;"><path d="M97.19-21.41L97.19-21.41L97.19-21.41Q99.61-20.86 102.03-20.55L102.03-20.55L102.03-20.55Q104.45-20.23 106.91-20.23L106.91-20.23L106.91-20.23Q109.49-20.23 111.70-20.72L111.70-20.72L111.70-20.72Q113.91-21.21 115.53-22.36L115.53-22.36L115.53-22.36Q117.15-23.52 118.09-25.43L118.09-25.43L118.09-25.43Q119.02-27.34 119.02-30.20L119.02-30.20L119.02-30.20Q119.02-32.50 118.40-34.41L118.40-34.41L118.40-34.41Q117.77-36.33 116.54-37.70L116.54-37.70L116.54-37.70Q115.31-39.06 113.52-39.82L113.52-39.82L113.52-39.82Q111.72-40.59 109.34-40.59L109.34-40.59L109.34-40.59Q107.11-40.59 105.33-39.77L105.33-39.77L105.33-39.77Q103.55-38.95 102.21-37.56L102.21-37.56L102.21-37.56Q100.86-36.17 99.90-34.34L99.90-34.34L99.90-34.34Q98.95-32.50 98.32-30.51L98.32-30.51L98.32-30.51Q97.70-28.52 97.42-26.48L97.42-26.48L97.42-26.48Q97.15-24.45 97.15-22.66L97.15-22.66L97.15-22.66Q97.15-22.34 97.15-22.03L97.15-22.03L97.15-22.03Q97.15-21.72 97.19-21.41zM129.73-30.31L129.73-30.31L129.73-30.31Q129.73-27.54 128.83-25.37L128.83-25.37L128.83-25.37Q127.93-23.20 126.39-21.56L126.39-21.56L126.39-21.56Q124.84-19.92 122.81-18.79L122.81-18.79L122.81-18.79Q120.78-17.66 118.48-16.93L118.48-16.93L118.48-16.93Q116.17-16.21 113.73-15.90L113.73-15.90L113.73-15.90Q111.29-15.59 108.98-15.59L108.98-15.59L108.98-15.59Q106.05-15.59 103.20-16.00L103.20-16.00L103.20-16.00Q100.35-16.41 97.58-17.30L97.58-17.30L97.58-17.30Q98.01-14.73 98.95-12.40L98.95-12.40L98.95-12.40Q99.88-10.08 101.45-8.34L101.45-8.34L101.45-8.34Q103.01-6.60 105.29-5.59L105.29-5.59L105.29-5.59Q107.58-4.57 110.70-4.57L110.70-4.57L110.70-4.57Q112.77-4.57 114.65-5.20L114.65-5.20L114.65-5.20Q116.52-5.82 118.09-6.95L118.09-6.95L118.09-6.95Q119.65-8.09 120.84-9.65L120.84-9.65L120.84-9.65Q122.03-11.21 122.77-13.13L122.77-13.13L128.48-11.02L128.48-11.02Q127.19-7.93 124.94-5.68L124.94-5.68L124.94-5.68Q122.70-3.44 119.86-1.97L119.86-1.97L119.86-1.97Q117.03-0.51 113.85 0.20L113.85 0.20L113.85 0.20Q110.66 0.90 107.54 0.90L107.54 0.90L107.54 0.90Q102.38 0.90 98.01-0.84L98.01-0.84L98.01-0.84Q93.63-2.58 90.47-5.70L90.47-5.70L90.47-5.70Q87.30-8.83 85.51-13.16L85.51-13.16L85.51-13.16Q83.71-17.50 83.71-22.66L83.71-22.66L83.71-22.66Q83.71-27.81 85.51-32.15L85.51-32.15L85.51-32.15Q87.30-36.48 90.47-39.61L90.47-39.61L90.47-39.61Q93.63-42.73 98.01-44.47L98.01-44.47L98.01-44.47Q102.38-46.21 107.54-46.21L107.54-46.21L107.54-46.21Q110.04-46.21 112.66-45.86L112.66-45.86L112.66-45.86Q115.27-45.51 117.73-44.75L117.73-44.75L117.73-44.75Q120.20-43.98 122.38-42.77L122.38-42.77L122.38-42.77Q124.57-41.56 126.19-39.79L126.19-39.79L126.19-39.79Q127.81-38.01 128.77-35.66L128.77-35.66L128.77-35.66Q129.73-33.32 129.73-30.31" fill="#28292f" stroke="none" stroke-width="none" transform="translate(-101.32998657226562,22.132462259928378)" style="fill: rgb(228, 47, 47);"></path></g><g class="path" style="transform: scale(0.91); transform-origin: 58.085px -0.522537px; animation: 1s linear -0.11s infinite normal forwards running breath-9dbdfc13-6241-4c0c-976e-8e00a2ed67dd;"><path d="M183.40-45.12L183.40 0L170.20 0L170.20-5.39L170.20-5.39Q167.85-2.19 164.55-0.64L164.55-0.64L164.55-0.64Q161.25 0.90 157.30 0.90L157.30 0.90L157.30 0.90Q152.15 0.90 148.09-0.94L148.09-0.94L148.09-0.94Q144.02-2.77 141.21-5.96L141.21-5.96L141.21-5.96Q138.40-9.14 136.91-13.44L136.91-13.44L136.91-13.44Q135.43-17.73 135.43-22.66L135.43-22.66L135.43-22.66Q135.43-27.58 136.91-31.88L136.91-31.88L136.91-31.88Q138.40-36.17 141.21-39.36L141.21-39.36L141.21-39.36Q144.02-42.54 148.09-44.38L148.09-44.38L148.09-44.38Q152.15-46.21 157.30-46.21L157.30-46.21L157.30-46.21Q159.92-46.21 162.29-45.43L162.29-45.43L162.29-45.43Q164.65-44.65 166.62-43.22L166.62-43.22L166.62-43.22Q168.59-41.80 170.10-39.79L170.10-39.79L170.10-39.79Q171.60-37.77 172.46-35.31L172.46-35.31L178.32-45.12L183.40-45.12zM170.12-22.66L170.12-22.66L170.12-22.66Q170.12-24.41 169.94-26.37L169.94-26.37L169.94-26.37Q169.77-28.32 169.34-30.23L169.34-30.23L169.34-30.23Q168.91-32.15 168.14-33.89L168.14-33.89L168.14-33.89Q167.38-35.63 166.19-36.97L166.19-36.97L166.19-36.97Q165-38.32 163.32-39.10L163.32-39.10L163.32-39.10Q161.64-39.88 159.41-39.88L159.41-39.88L159.41-39.88Q157.19-39.88 155.55-39.08L155.55-39.08L155.55-39.08Q153.91-38.28 152.73-36.93L152.73-36.93L152.73-36.93Q151.56-35.59 150.80-33.83L150.80-33.83L150.80-33.83Q150.04-32.07 149.61-30.16L149.61-30.16L149.61-30.16Q149.18-28.24 149.00-26.31L149.00-26.31L149.00-26.31Q148.83-24.38 148.83-22.66L148.83-22.66L148.83-22.66Q148.83-20.94 149.00-18.98L149.00-18.98L149.00-18.98Q149.18-17.03 149.61-15.12L149.61-15.12L149.61-15.12Q150.04-13.20 150.80-11.45L150.80-11.45L150.80-11.45Q151.56-9.69 152.73-8.34L152.73-8.34L152.73-8.34Q153.91-6.99 155.55-6.19L155.55-6.19L155.55-6.19Q157.19-5.39 159.41-5.39L159.41-5.39L159.41-5.39Q161.45-5.39 163.03-6.23L163.03-6.23L163.03-6.23Q164.61-7.07 165.80-8.48L165.80-8.48L165.80-8.48Q166.99-9.88 167.81-11.68L167.81-11.68L167.81-11.68Q168.63-13.48 169.14-15.39L169.14-15.39L169.14-15.39Q169.65-17.30 169.88-19.20L169.88-19.20L169.88-19.20Q170.12-21.09 170.12-22.66" fill="#28292f" stroke="none" stroke-width="none" transform="translate(-101.32998657226562,22.132462259928378)" style="fill: rgb(40, 41, 47);"></path></g><g class="path" style="transform: scale(0.91); transform-origin: 99.685px -10.8175px; animation: 1s linear 0s infinite normal forwards running breath-9dbdfc13-6241-4c0c-976e-8e00a2ed67dd;"><path d="M207.62-52.19L207.62 0L194.41 0L194.41-65.90L199.49-65.90L207.62-52.19" fill="#28292f" stroke="none" stroke-width="none" transform="translate(-101.32998657226562,22.132462259928378)" style="fill: rgb(228, 47, 47);"></path></g></g>
</g>
</g>
<style id="breath-9dbdfc13-6241-4c0c-976e-8e00a2ed67dd" data-anikit="">@keyframes breath-9dbdfc13-6241-4c0c-976e-8e00a2ed67dd
{
  0% {
    animation-timing-function: cubic-bezier(0.9647,0.2413,-0.0705,0.7911);
    transform: scale(0.9099999999999999);
  }
  51% {
    animation-timing-function: cubic-bezier(0.9226,0.2631,-0.0308,0.7628);
    transform: scale(1.02994);
  }
  100% {
    transform: scale(0.9099999999999999);
  }
}</style></svg>